PathFileType	4	(X/Y/Z)	Walk1_0-155.trc
DataRate	CameraRate	NumFrames	NumMarkers	Units	OrigDataRate	OrigDataStartFrame	OrigNumFrames
30	30	7	22	m	30	38	155
Frame#	Time	Hip			RHip			RKnee			RAnkle			RBigToe			RSmallToe			RHeel			LHip			LKnee			LAnkle			LBigToe			LSmallToe			LHeel			Neck			Head			Nose			RShoulder			RElbow			RWrist			LShoulder			LElbow			LWrist		
		X1	Y1	Z1	X2	Y2	Z2	X3	Y3	Z3	X4	Y4	Z4	X5	Y5	Z5	X6	Y6	Z6	X7	Y7	Z7	X8	Y8	Z8	X9	Y9	Z9	X10	Y10	Z10	X11	Y11	Z11	X12	Y12	Z12	X13	Y13	Z13	X14	Y14	Z14	X15	Y15	Z15	X16	Y16	Z16	X17	Y17	Z17	X18	Y18	Z18	X19	Y19	Z19	X20	Y20	Z20	X21	Y21	Z21	X22	Y22	Z22
39	1.3	-2.120689732358438	0.8457187381719243	0.372209826874084	-2.0811520668773973	0.8316475190492253	0.4655130732692875	-1.9921281055591784	0.4873528419341358	0.4403511637667993	-2.0271252568983273	0.08562668771334139	0.44297351880372743	-1.8200324780671309	0.01092667531474985	0.4350017735555822	-1.8339767720518907	0.008215728347019684	0.5059543258813092	-2.059615963247894	0.010878113070723444	0.4305427117964388	-2.153372429990227	0.8204281941504891	0.27532986153824707	-2.098905646283374	0.45450392896358915	0.2726506199633216	-2.424755734215548	0.16495735106034998	0.29001993660676906	-2.3503619805598013	-0.02814516288648094	0.2922004761035519	-2.3908096622765482	-0.016131718423798836	0.23846449718347823	-2.4968053613041956	0.14879316939430842	0.2831192198342838	-2.129024384756236	1.5227047806556606	0.3382699511323444	-2.073306099765882	1.7667253820774644	0.35830776542029225	-1.9805481179711901	1.649019218747903	0.34398207061278796	-2.1472169234707756	1.3986068848279516	0.5354738952345566	-2.147688479913217	1.094042719129062	0.605912946899154	-2.130973534147931	0.8427876294198082	0.634492351072372	-2.1945690021568507	1.4174828588503126	0.1404599119623402	-2.1602447126428554	1.0999419788181821	0.10922066332950683	-2.0859849688859247	0.8418776517139709	0.12081061163185883
40	1.3333333333333333	-2.0912009656571158	0.8499433103860816	0.375408195783949	-2.056893041695624	0.8331101516969706	0.4694621106179302	-1.987970299203685	0.4814117090221201	0.4443628468720385	-2.028860346123451	0.08531764643930585	0.44475659925207983	-1.8261449520161395	0.009001721698816825	0.43206156322327693	-1.8418587667273054	0.005525006677857031	0.5048667828681987	-2.0563444167595257	0.014014843943749166	0.43356083915490634	-2.1185056065254733	0.8252875232921593	0.27895628571808834	-2.0321257549595733	0.4659438123862581	0.2754063048847204	-2.3663245101223347	0.18421825168057493	0.29606497210007104	-2.301561750846141	-0.023694130753219134	0.29526708777749683	-2.34133322306397	-0.008201361164077017	0.24225863799191993	-2.435440172147715	0.17609213534355175	0.2885999922025284	-2.1032786803763432	1.5290904789249844	0.3441547713057528	-2.046487773377403	1.7731614205836532	0.36233343999684337	-1.954816073483406	1.6537948028741147	0.34921123999257486	-2.120863615201194	1.4066334996836154	0.5391336784474215	-2.10518402341596	1.0978886068706821	0.6125178119016172	-2.0744292321772506	0.8483238857486008	0.6396922269124913	-2.1700202157826265	1.4233453734035906	0.14515143894779634	-2.139625215740392	1.1066349562945859	0.11419646952019788	-2.0660509461915484	0.8484169878230329	0.12443729780611056
41	1.3666666666666667	-2.063107000455596	0.8534072409067573	0.37822648792127167	-2.035642851805958	0.8343757927967993	0.4732315565913982	-1.9876153920791366	0.4777076333130601	0.4462336627251098	-2.031971994835909	0.0853539654072557	0.4469870743131258	-1.8325337527138061	0.006915296724403053	0.4304866987901247	-1.8528514580682536	0.002364772789046796	0.5017789094049602	-2.0533801446548052	0.016850353516516522	0.4372113542558611	-2.084232720416453	0.830856002162954	0.28144341024660474	-1.9650228706006654	0.4806868412411139	0.27770887334233085	-2.2984646377297233	0.1979790638502943	0.30213069930612624	-2.233959622660842	-0.017747356727464445	0.29950099549230486	-2.2729775495858098	0.000776998044964087	0.2466285008913031	-2.3645901422342868	0.19151202200263684	0.2955454488758512	-2.076910001192642	1.5354555469294036	0.34904768993660695	-2.019443782690671	1.7801896398574035	0.36464201495853626	-1.928993954153811	1.657361909754088	0.35463785504302064	-2.0957861290939395	1.4157963984921484	0.5408142372603959	-2.062639800403049	1.1023140154056075	0.6185304439907678	-2.0155256878503347	0.8543827007750125	0.6444601991557363	-2.1448774674889273	1.4288011191964525	0.14888013402307876	-2.1174001224475045	1.1120734930805452	0.12057544656332472	-2.045625425053997	0.8548895953270028	0.12723121871216653
42	1.4	-2.0359121884490565	0.8562641913070379	0.38106597935535663	-2.016317943075915	0.8356068555235766	0.47705494016928507	-1.988965326395324	0.4757625036242189	0.44758844058674935	-2.0334912622514283	0.08584142888528401	0.4488514562772212	-1.8390631036804306	0.004164841122973016	0.43041198220359894	-1.8654267203246653	-0.0014454840102805233	0.4971725256196957	-2.051270345420466	0.018571924513926755	0.44112611027911025	-2.050411105111627	0.8370252172784952	0.2833758626765056	-1.900257401140623	0.49738554242374566	0.27984935241712633	-2.2215231601091605	0.2048415307719103	0.3073868259462296	-2.147150244907124	-0.010053838944598782	0.30401944082159227	-2.185849727751007	0.009775742888631882	0.250957556300445	-2.2860005965001635	0.19147967537088076	0.3036049351532637	-2.0497319952643998	1.5413167659251326	0.352969159892562	-1.9921664793461562	1.7871348125616742	0.3654244000870022	-1.9027391478865312	1.6594968217413013	0.35951764871592157	-2.070617544075738	1.4244336357799097	0.5421699946466279	-2.0206577837013766	1.1072460974772922	0.6238558741618881	-1.955299862885043	0.8613479133039322	0.6487975410376587	-2.11888945958507	1.4332963591655958	0.1518305454290638	-2.094402321924494	1.1163361123091162	0.1268766691167933	-2.0246140450497334	0.8604805683877637	0.1292248091478415
43	1.4333333333333331	-2.009152673916756	0.8587043675934005	0.3841308925619389	-1.9977796105333783	0.8369660357371168	0.48095989808036604	-1.9901084387403436	0.47471371843215654	0.44974090125061794	-2.031535171340832	0.08639820194652628	0.4496897094506001	-1.845389482298732	0.0005661116847187541	0.43179137565545633	-1.8773058492723869	-0.005788123455518912	0.49208585968789564	-2.0507813113417455	0.018206387848975762	0.4444688859178698	-2.016762343079624	0.8435682453858682	0.285278921075758	-1.8404099688747406	0.5140118912198558	0.28198654054149713	-2.135751392593527	0.20440138163823432	0.3111364443319746	-2.0430499464913994	-0.0013149236884489627	0.3075232997844718	-2.0823605329472072	0.01742828610384058	0.2545456540549202	-2.2003865009585795	0.1762742186588544	0.3117016821010934	-2.0217198285722278	1.5462503929140328	0.35607406895577715	-1.9649215660060138	1.7930189277072888	0.36532376533752275	-1.8757365847806722	1.6604313493459635	0.3632891602680432	-2.044552416732947	1.4315416082911605	0.5437296793533709	-1.9794981356368098	1.1123814965737702	0.6283813436101574	-1.8947546616665059	0.8694287827872772	0.652326485483862	-2.09188255768563	1.4365351839106224	0.15420729795257412	-2.0708319213775197	1.1194903766876652	0.13179735511880744	-2.003023723491814	0.8643244819712084	0.13082124292482714
44	1.4666666666666666	-1.982490699749343	0.8606200704742593	0.3874222221551714	-1.9790332948862877	0.8382801682805122	0.48487192318211664	-1.9899675345438284	0.4738577729845327	0.45275177694348584	-2.0267013620336507	0.08597822918403489	0.44917856241114257	-1.8507081444025946	-0.003727901938548026	0.43436541900608006	-1.8865609663676577	-0.01050145124911024	0.48734208667193435	-2.052934034534907	0.014809334166900294	0.44595610952654857	-1.9831388775152525	0.8498408843681042	0.28748594448851866	-1.787522084683804	0.5281719293158522	0.2839368605034841	-2.0417475989674747	0.19697582959802237	0.31307122659047426	-1.9257294125018871	0.007937589742225125	0.30869477654412375	-1.9664094799172356	0.023417730486868817	0.2563516243703667	-2.1075375773940794	0.14984107228310367	0.3182619331787782	-1.9929396086959583	1.5499007253220585	0.3586076274633632	-1.9380557449043938	1.7968998181205216	0.3650754313256131	-1.8477516299726848	1.6605572664061723	0.3657661005282928	-2.0172639143228537	1.4366518140789726	0.5452809085404028	-1.9392439710908522	1.1171447897756368	0.632099453241572	-1.8348132963678483	0.8784434449079799	0.6544248558133643	-2.063696282655017	1.4385064856980647	0.1561876299825993	-2.0461100575089888	1.12152331761381	0.13437899045655438	-1.9808744772303721	0.8657623402565359	0.13238178248791532
45	1.5	-1.9556774533843226	0.861573921802491	0.39079100489238255	-1.9593356374597377	0.838901518595366	0.48865905261797626	-1.9880972053934842	0.4725697742381879	0.45583857270076156	-2.021206582612746	0.0836134814846609	0.44735826101470055	-1.8540036040742383	-0.007990784311496572	0.437431546215331	-1.892213716691751	-0.01537791095837548	0.4831891119645458	-2.058772095932621	0.00804620076045291	0.44439183138513433	-1.949573500962855	0.8547139829754236	0.28994761277583825	-1.7426409053799248	0.5376083226663848	0.2853113079556885	-1.9407688881606233	0.1842116921024511	0.31316551065917	-1.800305385902732	0.018312275264877782	0.30671299339527175	-1.842667816693426	0.0291544672001536	0.2552972864005839	-2.0071906043693173	0.1182941612705465	0.3219558236389189	-1.9634259755534789	1.551960962843853	0.3607588225093254	-1.9116268072028508	1.7984000406663445	0.3648138165992716	-1.8186091338965469	1.6600707248479563	0.36705088646116074	-1.9887256437136507	1.4395254288111128	0.5464661963218558	-1.8999420695131046	1.120754029344884	0.6351088901903736	-1.7762331082934326	0.8878016295610639	0.6545340115270266	-2.0341131386803712	1.4392690272566775	0.15787077381451337	-2.019200437980045	1.122001364129024	0.13458505912004315	-1.9581476581060946	0.8646558920384525	0.13386337944601467
